<svg width="120" height="120" viewBox="0 0 120 120" fill="none" xmlns="http://www.w3.org/2000/svg">
<path d="M65.6642 32.4523C71.1643 29.5355 73.7524 34.0727 78.9287 36.3413C84.1049 38.6099 86.6931 39.2571 86.046 43.7943C90.1439 44.226 98.1455 46.5158 97.3691 52.2204C97.1213 54.0407 96.6839 55.5652 96.0728 56.7885C100.487 59.2684 98.86 63.0523 97.3011 64.8956C97.14 65.0861 97.0424 65.3223 97.0307 65.5715C96.8386 69.6549 94.8282 72.1106 92.1906 73.5152C93.1076 79.4185 87.6628 82.347 83.8587 83.3585C83.1934 83.5354 82.8258 84.2891 83.1129 84.9147C84.8378 88.6735 86.2395 94.3862 82.4852 94.6755C78.2795 94.9995 79.25 90.4624 76.6619 87.5456C74.0738 84.6288 72.7797 84.6288 66.9564 83.3325C62.2978 82.2954 60.9174 80.3406 60.8096 79.4928C58.6019 79.4654 56.4864 79.0429 54.9695 78.5702C54.7694 78.5078 54.5524 78.5067 54.3509 78.5645C47.0186 80.671 42.1301 75.949 40.5875 73.2859C38.5008 74.7827 35.8783 75.7442 32.6643 75.5545C24.1397 75.0513 24.4488 68.8097 25.7502 65.4794C25.826 65.2856 25.8463 65.0704 25.8056 64.8663C24.0564 56.0868 29.2663 51.6095 32.6505 50.1984C33.0413 50.0355 33.3176 49.6672 33.3465 49.2449C33.9268 40.7831 40.3967 39.0474 43.6442 39.2571C45.0394 35.0573 49.6094 33.5911 52.9825 33.4358C53.2326 33.4243 53.4727 33.3247 53.6594 33.1579C58.4951 28.8376 63.6554 30.8632 65.6642 32.4523Z" fill="#F25695"/>
<path d="M77.9577 61.6199C76.2323 61.8359 73.0403 61.231 74.0756 57.0827M74.0756 57.0827C72.8893 57.0827 70.5169 56.4345 70.5169 53.8418C70.5169 51.2492 72.8893 50.1689 74.0756 49.9528M74.0756 57.0827C72.3502 57.0827 68.2523 57.5364 65.6642 59.3513C62.429 61.6199 57.8998 63.8885 52.7236 58.379M52.7236 58.379C47.5473 52.8696 59.5174 49.3047 61.782 45.0916C64.0466 40.8785 60.1641 35.369 65.6642 32.4523M52.7236 58.379C52.7301 62.2624 49.7139 63.579 47.666 63.8371C47.2156 63.8939 46.8206 64.1938 46.6808 64.6258C45.8368 67.2328 43.8786 70.9251 40.5875 73.2859M65.6642 32.4523C71.1643 29.5355 73.7524 34.0727 78.9287 36.3413C84.1049 38.6099 86.6931 39.2571 86.046 43.7943M65.6642 32.4523C63.6554 30.8632 58.4951 28.8376 53.6594 33.1579C53.4727 33.3247 53.2326 33.4243 52.9825 33.4358C49.6094 33.5911 45.0394 35.0573 43.6442 39.2571M86.046 43.7943C85.399 48.3314 75.6935 41.8497 71.8113 41.8497M86.046 43.7943C90.1439 44.226 98.1455 46.5158 97.3691 52.2204C97.1213 54.0407 96.6839 55.5652 96.0728 56.7885M71.8113 41.8497C68.7056 41.8497 70.3016 38.825 71.4878 37.3126M71.8113 41.8497C69.8661 42.2819 66.431 44.1832 68.2527 48.3314M86.6931 59.6744C91.0299 61.3639 94.2901 60.3577 96.0728 56.7885M87.6636 52.8686C87.0166 53.1924 85.5931 54.1642 85.0755 55.4613C84.4285 57.0827 89.9282 59.9985 83.4579 64.5356C76.9876 69.0728 76.017 65.1838 72.1349 66.4801C69.1236 67.4857 65.7231 70.636 59.5177 69.1253M53.3709 66.4801C55.6935 67.8616 57.7229 68.6884 59.5177 69.1253M57.5767 72.3137C58.3315 72.0246 59.7766 70.9822 59.5177 69.1253M45.6066 50.2759C43.1216 45.378 42.7955 41.8118 43.6442 39.2571M43.6442 39.2571C40.3967 39.0474 33.9268 40.7831 33.3465 49.2449C33.3176 49.6672 33.0413 50.0355 32.6505 50.1984C29.2663 51.6095 24.0564 56.0868 25.8056 64.8663C25.8463 65.0704 25.826 65.2856 25.7502 65.4794C24.4488 68.8097 24.1397 75.0513 32.6643 75.5545C35.8783 75.7442 38.5008 74.7827 40.5875 73.2859M34.2813 57.0827C35.2272 57.3094 36.6624 57.5171 38.1635 57.4895M55.6334 40.2293C54.6521 40.2293 53.4245 40.4772 52.0747 41.0565M53.6923 37.9607C53.4766 38.6202 52.8511 40.1626 52.0747 41.0565M52.0747 41.0565C50.7513 41.6243 49.3104 42.5107 47.869 43.7943C44.9573 46.3869 46.2514 52.2204 43.6442 55.4613C42.4345 56.9649 40.2362 57.4514 38.1635 57.4895M37.193 65.1838C36.1146 63.6192 34.7989 59.8898 38.1635 57.4895M40.5875 73.2859C42.1301 75.949 47.0186 80.671 54.3509 78.5645C54.5524 78.5067 54.7694 78.5078 54.9695 78.5702C56.4864 79.0429 58.6019 79.4654 60.8096 79.4928M96.0728 56.7885C100.487 59.2684 98.86 63.0523 97.3011 64.8956C97.14 65.0861 97.0424 65.3223 97.0307 65.5715C96.8386 69.6549 94.8282 72.1106 92.1906 73.5152M60.8096 79.4928C64.0427 79.533 67.4738 78.7262 69.5132 75.99C69.9017 75.4688 70.6675 75.3205 71.2182 75.6658C73.3907 77.0282 77.2006 78.1308 80.8266 75.2138C81.0612 75.0251 81.3624 74.9363 81.6605 74.9778C84.5912 75.3849 88.8838 75.2762 92.1906 73.5152M60.8096 79.4928C60.9174 80.3406 62.2978 82.2954 66.9564 83.3325C72.7797 84.6288 74.0738 84.6288 76.6619 87.5456C79.25 90.4624 78.2795 94.9995 82.4852 94.6755C86.2395 94.3862 84.8378 88.6735 83.1129 84.9147C82.8258 84.2891 83.1934 83.5354 83.8587 83.3585C87.6628 82.347 93.1076 79.4185 92.1906 73.5152" stroke="#F25695" stroke-width="3" stroke-linecap="round" stroke-linejoin="round"/>
<g filter="url(#filter0_d_412_888)">
<path d="M73.8995 56.7488C72.174 56.9649 68.982 56.3599 70.0173 52.2116M70.0173 52.2116C68.831 52.2116 66.4585 51.5635 66.4585 48.9708C66.4585 46.3781 68.831 45.2978 70.0173 45.0818M70.0173 52.2116C68.2919 52.2116 64.1939 52.6653 61.6057 54.4802C58.3706 56.7488 53.8413 59.0174 48.6651 53.508M48.6651 53.508C43.4888 47.9985 55.4589 44.4336 57.7235 40.2205C59.9882 36.0074 56.1056 30.498 61.6057 27.5812M48.6651 53.508C48.6716 57.3913 45.6555 58.708 43.6075 58.966C43.1571 59.0228 42.7621 59.3228 42.6223 59.7547C41.7783 62.3617 39.82 66.0541 36.5288 68.4148M61.6057 27.5812C67.1059 24.6644 69.6941 29.2016 74.8704 31.4702C80.0467 33.7388 82.6348 34.386 81.9877 38.9232M61.6057 27.5812C59.5969 25.9921 54.4366 23.9665 49.6009 28.2868C49.4142 28.4536 49.1741 28.5532 48.9241 28.5647C45.5509 28.72 40.9807 30.1862 39.5856 34.386M81.9877 38.9232C81.3407 43.4604 71.6351 36.9787 67.7529 36.9787M81.9877 38.9232C86.0856 39.355 94.0872 41.6447 93.3108 47.3494C93.063 49.1696 92.6256 50.6941 92.0145 51.9175M67.7529 36.9787C64.6471 36.9787 66.2432 33.9539 67.4294 32.4415M67.7529 36.9787C65.8077 37.4108 62.3726 39.3121 64.1942 43.4604M82.6348 54.8033C86.9716 56.4928 90.2318 55.4866 92.0145 51.9175M83.6053 47.9975C82.9583 48.3213 81.5348 49.2931 81.0172 50.5902C80.3702 52.2116 85.8699 55.1274 79.3996 59.6646C72.9293 64.2018 71.9586 60.3127 68.0765 61.6091C65.0652 62.6146 61.6647 65.7649 55.4593 64.2543M49.3125 61.6091C51.635 62.9905 53.6645 63.8174 55.4593 64.2543M53.5182 67.4426C54.2731 67.1535 55.7181 66.1112 55.4593 64.2543M41.548 45.4049C39.063 40.5069 38.7369 36.9407 39.5856 34.386M39.5856 34.386C36.3381 34.1763 29.8682 35.912 29.2879 44.3738C29.259 44.7962 28.9827 45.1644 28.5919 45.3273C25.2077 46.7384 19.9978 51.2157 21.747 59.9952C21.7877 60.1993 21.7674 60.4145 21.6916 60.6083C20.3902 63.9386 20.0811 70.1802 28.6057 70.6834C31.8197 70.8732 34.4422 69.9116 36.5288 68.4148M30.2227 52.2116C31.1686 52.4384 32.6038 52.646 34.1049 52.6184M51.5749 35.3583C50.5937 35.3583 49.366 35.6061 48.0162 36.1854M49.6338 33.0896C49.4181 33.7491 48.7926 35.2915 48.0162 36.1854M48.0162 36.1854C46.6928 36.7533 45.2519 37.6397 43.8105 38.9232C40.8989 41.5159 42.1928 47.3494 39.5856 50.5902C38.3759 52.0939 36.1775 52.5803 34.1049 52.6184M33.1344 60.3127C32.056 58.7481 30.7403 55.0188 34.1049 52.6184M36.5288 68.4148C38.0715 71.078 42.9601 75.7999 50.2925 73.6935C50.4939 73.6356 50.7109 73.6368 50.9111 73.6991C52.428 74.1719 54.5434 74.5943 56.7512 74.6218M92.0145 51.9175C96.4284 54.3973 94.8017 58.1812 93.2428 60.0245C93.0817 60.215 92.9842 60.4512 92.9724 60.7004C92.7803 64.7838 90.7699 67.2395 88.1323 68.6441M56.7512 74.6218C59.9843 74.662 63.4154 73.8551 65.4548 71.1189C65.8433 70.5977 66.6091 70.4494 67.1598 70.7948C69.3323 72.1571 73.1423 73.2597 76.7683 70.3427C77.0029 70.1541 77.3041 70.0653 77.6022 70.1067C80.5329 70.5139 84.8255 70.4051 88.1323 68.6441M56.7512 74.6218C56.859 75.4695 58.2393 77.4244 62.898 78.4615C68.7212 79.7578 70.0155 79.7578 72.6036 82.6745C75.1917 85.5913 74.2212 90.1285 78.4269 89.8044C82.1812 89.5151 80.7795 83.8024 79.0546 80.0437C78.7675 79.418 79.1351 78.6643 79.8004 78.4874C83.6045 77.4759 89.0493 74.5474 88.1323 68.6441" stroke="#3D3D3D" stroke-width="3" stroke-linecap="round" stroke-linejoin="round" shape-rendering="crispEdges"/>
</g>
<defs>
<filter id="filter0_d_412_888" x="15.5" y="24.1875" width="84.8711" height="75.1328" filterUnits="userSpaceOnUse" color-interpolation-filters="sRGB">
<feFlood flood-opacity="0" result="BackgroundImageFix"/>
<feColorMatrix in="SourceAlpha" type="matrix" values="0 0 0 0 0 0 0 0 0 0 0 0 0 0 0 0 0 0 127 0" result="hardAlpha"/>
<feOffset dy="4"/>
<feGaussianBlur stdDeviation="2"/>
<feComposite in2="hardAlpha" operator="out"/>
<feColorMatrix type="matrix" values="0 0 0 0 0 0 0 0 0 0 0 0 0 0 0 0 0 0 0.25 0"/>
<feBlend mode="normal" in2="BackgroundImageFix" result="effect1_dropShadow_412_888"/>
<feBlend mode="normal" in="SourceGraphic" in2="effect1_dropShadow_412_888" result="shape"/>
</filter>
</defs>
</svg>
