<svg width="120" height="120" viewBox="0 0 120 120" fill="none" xmlns="http://www.w3.org/2000/svg">
<circle cx="70.0097" cy="68.8729" r="28.9354" fill="#6FC4DA"/>
<circle cx="70.4058" cy="68.4761" r="15.855" fill="#DE4041"/>
<g filter="url(#filter0_d_412_881)">
<circle cx="65.8378" cy="65.1151" r="27.4354" stroke="#3D3D3D" stroke-width="3" shape-rendering="crispEdges"/>
</g>
<g filter="url(#filter1_d_412_881)">
<circle cx="66.2339" cy="65.5113" r="14.355" stroke="#3D3D3D" stroke-width="3" shape-rendering="crispEdges"/>
</g>
<g filter="url(#filter2_d_412_881)">
<path d="M24.013 22.8936V12.1914L31.9405 20.1189V30.8211L62.0651 60.9456L63.5 58.1914L66.8216 65.7021L59.5 62.6914L62.0651 60.9456L31.9405 30.8211H21.6348L14.5 22.8936H24.013Z" fill="white"/>
<path d="M24.013 22.8936V12.1914L31.9405 20.1189V30.8211M24.013 22.8936L31.9405 30.8211M24.013 22.8936H14.5L21.6348 30.8211H31.9405M65.6325 64.513L62.0651 60.9456M31.9405 30.8211L62.0651 60.9456M62.0651 60.9456L63.5 58.1914L66.8216 65.7021L59.5 62.6914L62.0651 60.9456Z" stroke="#3D3D3D" stroke-width="3" stroke-linecap="round" stroke-linejoin="round"/>
</g>
<defs>
<filter id="filter0_d_412_881" x="32.9023" y="36.1797" width="65.8711" height="65.8711" filterUnits="userSpaceOnUse" color-interpolation-filters="sRGB">
<feFlood flood-opacity="0" result="BackgroundImageFix"/>
<feColorMatrix in="SourceAlpha" type="matrix" values="0 0 0 0 0 0 0 0 0 0 0 0 0 0 0 0 0 0 127 0" result="hardAlpha"/>
<feOffset dy="4"/>
<feGaussianBlur stdDeviation="2"/>
<feComposite in2="hardAlpha" operator="out"/>
<feColorMatrix type="matrix" values="0 0 0 0 0 0 0 0 0 0 0 0 0 0 0 0 0 0 0.25 0"/>
<feBlend mode="normal" in2="BackgroundImageFix" result="effect1_dropShadow_412_881"/>
<feBlend mode="normal" in="SourceGraphic" in2="effect1_dropShadow_412_881" result="shape"/>
</filter>
<filter id="filter1_d_412_881" x="46.3789" y="49.6562" width="39.7109" height="39.7109" filterUnits="userSpaceOnUse" color-interpolation-filters="sRGB">
<feFlood flood-opacity="0" result="BackgroundImageFix"/>
<feColorMatrix in="SourceAlpha" type="matrix" values="0 0 0 0 0 0 0 0 0 0 0 0 0 0 0 0 0 0 127 0" result="hardAlpha"/>
<feOffset dy="4"/>
<feGaussianBlur stdDeviation="2"/>
<feComposite in2="hardAlpha" operator="out"/>
<feColorMatrix type="matrix" values="0 0 0 0 0 0 0 0 0 0 0 0 0 0 0 0 0 0 0.25 0"/>
<feBlend mode="normal" in2="BackgroundImageFix" result="effect1_dropShadow_412_881"/>
<feBlend mode="normal" in="SourceGraphic" in2="effect1_dropShadow_412_881" result="shape"/>
</filter>
<filter id="filter2_d_412_881" x="9" y="10.6914" width="63.3203" height="64.5117" filterUnits="userSpaceOnUse" color-interpolation-filters="sRGB">
<feFlood flood-opacity="0" result="BackgroundImageFix"/>
<feColorMatrix in="SourceAlpha" type="matrix" values="0 0 0 0 0 0 0 0 0 0 0 0 0 0 0 0 0 0 127 0" result="hardAlpha"/>
<feOffset dy="4"/>
<feGaussianBlur stdDeviation="2"/>
<feComposite in2="hardAlpha" operator="out"/>
<feColorMatrix type="matrix" values="0 0 0 0 0 0 0 0 0 0 0 0 0 0 0 0 0 0 0.25 0"/>
<feBlend mode="normal" in2="BackgroundImageFix" result="effect1_dropShadow_412_881"/>
<feBlend mode="normal" in="SourceGraphic" in2="effect1_dropShadow_412_881" result="shape"/>
</filter>
</defs>
</svg>
