<svg width="101" height="100" viewBox="0 0 101 100" fill="none" xmlns="http://www.w3.org/2000/svg">
<path d="M46.0013 45.4227L21.8555 41.6028C20.4523 41.3809 19.1348 42.3384 18.9128 43.7417L17.2965 53.9588C17.0601 55.4528 18.1905 56.7744 19.6019 57.3182C20.415 57.6315 21.2086 58.0775 22.1058 58.6827C24.6161 60.3764 25.5247 62.5946 27.6012 64.9235C30.1968 67.8346 33.896 69.6238 38.5176 72.0219C41.8554 73.7539 43.4067 70.3875 43.9396 69.3605C44.3659 68.5388 43.8008 67.1158 43.4649 66.507C46.9645 67.8016 48.9624 65.7098 49.5525 64.3214C50.0019 63.264 49.7536 54.7329 49.5494 49.9992C49.5299 49.5478 49.3906 49.1128 49.1468 48.7323L47.7654 46.5759C47.3691 45.9572 46.7271 45.5375 46.0013 45.4227Z" fill="#C69574"/>
<path d="M57.546 45.0627L81.6064 40.7375C83.0047 40.4861 84.342 41.4158 84.5933 42.8141L86.4235 52.9951C86.6912 54.4838 85.5888 55.8288 84.189 56.4021C83.3827 56.7324 82.5986 57.1949 81.7144 57.8188C79.24 59.5648 78.3782 61.8016 76.351 64.1735C73.817 67.1383 70.1561 69.0047 65.5858 71.4992C62.2851 73.3007 60.6635 69.9676 60.1092 68.952C59.6657 68.1395 60.2009 66.705 60.524 66.0893C57.0523 67.4569 55.0109 65.4074 54.3919 64.0317C53.9204 62.984 53.9897 54.4496 54.0947 49.7126C54.1047 49.2609 54.2349 48.8231 54.4706 48.4376L55.8065 46.2527C56.1898 45.6258 56.8228 45.1927 57.546 45.0627Z" fill="#F6CFB3"/>
<path d="M50.5166 26.7295C50.9508 25.6595 52.4659 25.6595 52.9001 26.7295L54.1019 29.6908C54.2863 30.1451 54.7129 30.4551 55.202 30.49L58.3897 30.7179C59.5415 30.8003 60.0097 32.2412 59.1262 32.9848L56.6813 35.0429C56.3062 35.3586 56.1432 35.8602 56.2611 36.3361L57.0294 39.4382C57.307 40.5591 56.0813 41.4496 55.1011 40.8392L52.3882 39.1499C51.972 38.8907 51.4447 38.8907 51.0285 39.1499L48.3156 40.8392C47.3353 41.4496 46.1097 40.5591 46.3873 39.4382L47.1556 36.3361C47.2735 35.8602 47.1105 35.3586 46.7354 35.0429L44.2904 32.9848C43.407 32.2412 43.8752 30.8003 45.027 30.7179L48.2147 30.49C48.7038 30.4551 49.1304 30.1451 49.3148 29.6908L50.5166 26.7295Z" fill="#E9BB6B"/>
<path d="M32.9253 32.033C32.7663 30.8892 34.0784 30.1317 34.9895 30.8412L35.7289 31.4171C36.1157 31.7183 36.6402 31.7735 37.0812 31.5592L37.9241 31.1497C38.9628 30.6451 40.0887 31.6588 39.6955 32.7446L39.3763 33.6257C39.2093 34.0867 39.319 34.6025 39.659 34.9558L40.309 35.6309C41.1098 36.4629 40.4936 37.8469 39.3395 37.8084L38.4028 37.7772C37.9128 37.7608 37.4561 38.0245 37.2253 38.457L36.784 39.2838C36.2403 40.3026 34.7335 40.1442 34.4135 39.0347L34.1538 38.1342C34.0179 37.6631 33.626 37.3102 33.1433 37.2244L32.2206 37.0602C31.0837 36.8579 30.7687 35.376 31.7251 34.7287L32.5012 34.2035C32.9072 33.9287 33.1217 33.4469 33.0543 32.9613L32.9253 32.033Z" fill="#E9BB6B"/>
<path d="M68.9984 31.0771C70.062 30.6275 71.1333 31.6988 70.6838 32.7625L70.3189 33.6257C70.1281 34.0773 70.2106 34.5982 70.5316 34.9687L71.1454 35.677C71.9016 36.5497 71.2138 37.8996 70.0633 37.8007L69.1295 37.7205C68.641 37.6785 68.1712 37.9179 67.918 38.3378L67.4341 39.1404C66.8378 40.1293 65.3414 39.8923 65.0799 38.7675L64.8676 37.8547C64.7566 37.3771 64.3837 37.0042 63.9062 36.8932L62.9933 36.6809C61.8686 36.4194 61.6315 34.9231 62.6205 34.3268L63.423 33.8428C63.8429 33.5896 64.0823 33.1198 64.0403 32.6313L63.9601 31.6975C63.8613 30.547 65.2112 29.8592 66.0839 30.6154L66.7921 31.2292C67.1626 31.5503 67.6835 31.6328 68.1351 31.4419L68.9984 31.0771Z" fill="#E9BB6B"/>
<path d="M41.5313 64.5774C45.0309 65.8719 47.0288 63.7801 47.6189 62.3917C48.0683 61.3343 47.82 52.8033 47.6158 48.0695C47.5963 47.6181 47.457 47.1831 47.2132 46.8026L45.8318 44.6462C45.4355 44.0275 44.7935 43.6078 44.0678 43.493L19.9219 39.6732C18.5187 39.4512 17.2012 40.4087 16.9792 41.812L15.3629 52.0291C15.1265 53.5231 16.2569 54.8447 17.6683 55.3885C18.4814 55.7018 19.275 56.1478 20.1722 56.7531C22.6825 58.4467 23.5911 60.6649 25.6676 62.9938C28.2632 65.9049 31.9624 67.6941 36.584 70.0922C39.9218 71.8242 41.4731 68.4578 42.006 67.4308C42.4323 66.6091 41.8672 65.1862 41.5313 64.5774ZM41.5313 64.5774C38.0317 63.2828 36.9669 61.8178 36.3584 60.9807C35.75 60.1436 34.1911 57.1186 34.6669 56.453C34.9058 56.1187 36.5927 54.3873 38.3048 52.6571M41.0791 49.8734C40.3428 50.6069 39.3194 51.6318 38.3048 52.6571M38.3048 52.6571C38.1702 53.3521 38.2206 54.8296 39.4988 55.18M39.4988 55.18C40.7769 55.5304 42.9484 54.0587 43.8743 53.2791M39.4988 55.18C40.164 56.8287 42.0234 60.0617 44.1387 59.8037M39.4988 55.18C38.9658 56.207 38.113 58.554 38.9648 59.726" stroke="#2B3B46" stroke-width="1.92926" stroke-linecap="round" stroke-linejoin="round"/>
<path d="M58.5865 64.1596C55.1148 65.5272 53.0734 63.4777 52.4544 62.102C51.9829 61.0543 52.0522 52.5199 52.1572 47.7829C52.1672 47.3312 52.2974 46.8934 52.5331 46.5079L53.869 44.323C54.2523 43.6961 54.8853 43.263 55.6085 43.133L79.6689 38.8078C81.0672 38.5564 82.4045 39.4861 82.6558 40.8844L84.486 51.0654C84.7537 52.5541 83.6513 53.8991 82.2515 54.4724C81.4452 54.8027 80.6611 55.2652 79.7769 55.8892C77.3025 57.6351 76.4407 59.8719 74.4135 62.2438C71.8795 65.2087 68.2186 67.075 63.6483 69.5695C60.3476 71.371 58.726 68.0379 58.1717 67.0223C57.7282 66.2098 58.2634 64.7753 58.5865 64.1596ZM58.5865 64.1596C62.0582 62.792 63.092 61.305 63.6828 60.4552C64.2735 59.6055 65.7687 56.5486 65.2791 55.8931C65.0331 55.5638 63.3104 53.8682 61.5624 52.1743M58.7302 49.4494C59.4818 50.1673 60.5265 51.1705 61.5624 52.1743M61.5624 52.1743C61.7115 52.8663 61.7468 54.7217 60.4215 54.7217M60.4215 54.7217C59.0846 54.7217 57.1807 54.193 56.2386 53.433M60.4215 54.7217C59.791 56.384 57.9998 59.6553 55.8796 59.4416M60.4215 54.7217C60.9759 55.7373 61.8778 58.0659 61.0507 59.2555" stroke="#2B3B46" stroke-width="1.92926" stroke-linecap="round" stroke-linejoin="round"/>
<path d="M49.4727 25.1621C49.5813 24.8951 49.9595 24.8953 50.0684 25.1621L51.2705 28.124C51.5931 28.9189 52.3397 29.4612 53.1953 29.5225L56.3838 29.75C56.6715 29.7709 56.7882 30.1315 56.5674 30.3174L54.123 32.375C53.4666 32.9275 53.1814 33.8058 53.3877 34.6387L54.1553 37.7402C54.2246 38.0203 53.9188 38.243 53.6738 38.0908L50.9609 36.4014C50.2326 35.9478 49.3094 35.9478 48.5811 36.4014L45.8682 38.0908C45.6231 38.2433 45.3163 38.0204 45.3857 37.7402L46.1543 34.6387C46.3606 33.8058 46.0754 32.9275 45.4189 32.375L42.9746 30.3174C42.7538 30.1315 42.8703 29.7706 43.1582 29.75L46.3457 29.5225C47.2015 29.4613 47.9488 28.9191 48.2715 28.124L49.4727 25.1621Z" stroke="#2B3B46" stroke-width="1.92926"/>
<path d="M31.9469 29.9702C31.9076 29.6846 32.2351 29.4955 32.4628 29.6723L33.2027 30.2487C33.8795 30.7757 34.7972 30.8721 35.5688 30.4974L36.4122 30.0871C36.6718 29.9614 36.9532 30.2154 36.8549 30.4867L36.5359 31.3678C36.2438 32.1744 36.4354 33.0769 37.0304 33.695L37.6809 34.3704C37.8806 34.5784 37.7263 34.924 37.4379 34.9144L36.501 34.8836C35.6437 34.8551 34.8448 35.3163 34.4408 36.073L33.9991 36.8998C33.8633 37.1543 33.4868 37.1152 33.4065 36.8382L33.1468 35.9372C32.909 35.1128 32.2234 34.4956 31.3786 34.3453L30.4561 34.181C30.1719 34.1305 30.0932 33.7592 30.3323 33.5974L31.1084 33.0726C31.8188 32.5917 32.1941 31.7488 32.0761 30.8991L31.9469 29.9702Z" stroke="#2B3B46" stroke-width="1.92926"/>
<path d="M67.4406 30.0356C67.7063 29.9237 67.9737 30.1912 67.8619 30.4568L67.4966 31.3206C67.1627 32.1108 67.3071 33.0222 67.8688 33.6705L68.4833 34.379C68.672 34.5972 68.4995 34.9347 68.212 34.91L67.2783 34.8299C66.4236 34.7566 65.6015 35.1753 65.1584 35.9099L64.6743 36.713C64.5251 36.9598 64.1514 36.9002 64.086 36.6191L63.8733 35.7062C63.6789 34.8707 63.0267 34.2184 62.1912 34.0241L61.2783 33.8114C60.9973 33.7461 60.9376 33.3723 61.1844 33.2231L61.9875 32.739C62.7222 32.2959 63.1409 31.4739 63.0675 30.6191L62.9874 29.6855C62.9627 29.3978 63.3009 29.2257 63.5191 29.4148L64.2269 30.0287C64.8752 30.5904 65.7866 30.7347 66.5768 30.4009L67.4406 30.0356Z" stroke="#2B3B46" stroke-width="1.92926"/>
</svg>
