<svg width="120" height="120" viewBox="0 0 120 120" fill="none" xmlns="http://www.w3.org/2000/svg">
<path d="M71.0726 25.1041L46.8122 29.263C45.9445 29.4117 45.2761 30.1104 45.1659 30.9838L40.4003 68.7416C40.2266 70.1181 41.473 71.249 42.8262 70.9426L58.795 67.3271C60.1774 67.0141 61.4377 68.1987 61.2108 69.5978L56.1287 100.938C55.7713 103.142 58.7467 104.185 59.8445 102.241L85.8652 56.1562C86.7396 54.6075 85.3092 52.7734 83.5942 53.2442L70.5201 56.8332C69.087 57.2266 67.7406 55.9749 68.0286 54.5169L73.3726 27.4629C73.6442 26.0879 72.454 24.8673 71.0726 25.1041Z" fill="#E9BB6B"/>
<path d="M67.8031 21.6822L43.5427 25.8411C42.675 25.9899 42.0066 26.6885 41.8963 27.5619L37.1308 65.3197C36.957 66.6962 38.2035 67.8271 39.5567 67.5207L55.5254 63.9052C56.9079 63.5922 58.1682 64.7768 57.9413 66.176L52.8592 97.5157C52.5018 99.7197 55.4771 100.763 56.575 98.8192L82.5957 52.7343C83.4701 51.1857 82.0397 49.3515 80.3247 49.8223L67.2506 53.4113C65.8175 53.8047 64.4711 52.553 64.7591 51.0951L70.1031 24.041C70.3747 22.666 69.1844 21.4454 67.8031 21.6822Z" stroke="#3D3D3D" stroke-width="3"/>
</svg>
