<svg width="101" height="100" viewBox="0 0 101 100" fill="none" xmlns="http://www.w3.org/2000/svg">
<path d="M62.171 73.1429H39.8769C39.4182 73.1429 39.1098 72.6768 39.3262 72.2723C41.6371 67.9542 47.005 65.4316 50.9914 65.4316V50.009C50.9914 47.7617 49.3422 45.7716 47.4152 44.2566C46.8933 45.4395 44.9548 47.3645 39.1393 47.3645C34.5706 47.3645 31.0676 42.0798 30.0515 36.4067C29.9992 36.1146 30.1622 35.8279 30.4378 35.7177C35.5599 33.6695 39.2379 33.1181 42.4944 34.3655C46.8295 36.0262 47.8261 41.7672 47.4152 44.2566C49.3422 45.7716 50.9914 47.7617 50.9914 50.009C51.6253 48.0482 53.2533 44.6705 55.9147 41.766C54.7964 39.3653 53.9464 33.7753 59.4935 30.6207C64.7823 27.6129 70.6269 29.4127 73.2275 30.8534C73.4489 30.976 73.5654 31.2213 73.5275 31.4715C72.976 35.1105 70.8538 41.9511 66.2037 43.1784C61.3724 44.4536 57.3313 42.7681 55.9147 41.766C53.2533 44.6705 51.6253 48.0482 50.9914 50.009V65.4316C54.5422 65.4316 59.7046 67.9254 62.6876 72.1982C62.9721 72.6056 62.6679 73.1429 62.171 73.1429Z" fill="#4D8F55"/>
<g filter="url(#filter0_d_412_896)">
<path d="M48.0422 63.8964C51.593 63.8964 56.7554 66.3902 59.7384 70.663C60.0229 71.0705 59.7187 71.6077 59.2218 71.6077H36.9277C36.469 71.6077 36.1605 71.1416 36.377 70.7372C38.6879 66.4191 44.0558 63.8964 48.0422 63.8964ZM48.0422 63.8964C48.0422 60.4447 48.0422 52.5278 48.0422 48.4739M48.0422 48.4739C48.6761 46.5131 50.304 43.1353 52.9655 40.2308M48.0422 48.4739C48.0422 46.2265 46.393 44.2365 44.466 42.7214M35.9664 38.9994C38.6505 39.6604 41.5582 40.762 44.466 42.7214M61.2414 34.3726C58.6381 35.3429 54.6902 38.3488 52.9655 40.2308M52.9655 40.2308C51.8472 37.8302 50.9972 32.2401 56.5443 29.0855C61.8331 26.0777 67.6776 27.8776 70.2783 29.3182C70.4997 29.4409 70.6162 29.6861 70.5783 29.9363C70.0268 33.5753 67.9046 40.4159 63.2545 41.6433C58.4231 42.9184 54.3821 41.233 52.9655 40.2308ZM44.466 42.7214C44.8769 40.2321 43.8803 34.491 39.5452 32.8304C36.2887 31.5829 32.6107 32.1344 27.4886 34.1826C27.213 34.2927 27.05 34.5794 27.1023 34.8716C28.1183 40.5447 31.6214 45.8294 36.1901 45.8294C42.0056 45.8294 43.9441 43.9043 44.466 42.7214Z" stroke="#2B3B46" stroke-width="1.92926" stroke-linecap="round" stroke-linejoin="round" shape-rendering="crispEdges"/>
</g>
<defs>
<filter id="filter0_d_412_896" x="23.5566" y="26.4883" width="50.5666" height="51.2306" filterUnits="userSpaceOnUse" color-interpolation-filters="sRGB">
<feFlood flood-opacity="0" result="BackgroundImageFix"/>
<feColorMatrix in="SourceAlpha" type="matrix" values="0 0 0 0 0 0 0 0 0 0 0 0 0 0 0 0 0 0 127 0" result="hardAlpha"/>
<feOffset dy="2.57235"/>
<feGaussianBlur stdDeviation="1.28617"/>
<feComposite in2="hardAlpha" operator="out"/>
<feColorMatrix type="matrix" values="0 0 0 0 0 0 0 0 0 0 0 0 0 0 0 0 0 0 0.25 0"/>
<feBlend mode="normal" in2="BackgroundImageFix" result="effect1_dropShadow_412_896"/>
<feBlend mode="normal" in="SourceGraphic" in2="effect1_dropShadow_412_896" result="shape"/>
</filter>
</defs>
</svg>
