<svg width="120" height="120" viewBox="0 0 120 120" fill="none" xmlns="http://www.w3.org/2000/svg">
<path d="M78.1604 95.7385H43.4931C42.7799 95.7385 42.3002 95.0137 42.6368 94.3848C46.2302 87.6702 54.5773 83.7475 60.7761 83.7475V59.7654C60.7761 56.2708 58.2116 53.1762 55.2152 50.8203C54.4036 52.6597 51.3892 55.6532 42.3462 55.6532C35.2418 55.6532 29.7946 47.4355 28.2147 38.6138C28.1333 38.1595 28.3868 37.7137 28.8153 37.5424C36.7802 34.3575 42.4994 33.4999 47.5633 35.4397C54.3044 38.022 55.8542 46.9494 55.2152 50.8203C58.2116 53.1762 60.7761 56.2708 60.7761 59.7654C61.7618 56.7163 64.2934 51.4639 68.432 46.9475C66.6929 43.2144 65.3712 34.5219 73.9969 29.6165C82.221 24.9394 91.3093 27.7381 95.3533 29.9784C95.6976 30.1691 95.8788 30.5504 95.8198 30.9395C94.9622 36.5982 91.6623 47.2353 84.4312 49.1438C76.9185 51.1267 70.6348 48.5058 68.432 46.9475C64.2934 51.4639 61.7618 56.7163 60.7761 59.7654V83.7475C66.2976 83.7475 74.3252 87.6253 78.9638 94.2695C79.4061 94.9031 78.9332 95.7385 78.1604 95.7385Z" fill="#4D8F55"/>
<g filter="url(#filter0_d_412_892)">
<path d="M56.1902 81.3607C61.7117 81.3607 69.7393 85.2386 74.3779 91.8828C74.8202 92.5164 74.3472 93.3518 73.5745 93.3518H38.9072C38.1939 93.3518 37.7143 92.627 38.0508 91.9981C41.6443 85.2834 49.9914 81.3607 56.1902 81.3607ZM56.1902 81.3607C56.1902 75.9933 56.1902 63.6825 56.1902 57.3787M56.1902 57.3787C57.1759 54.3296 59.7074 49.0772 63.846 44.5608M56.1902 57.3787C56.1902 53.884 53.6257 50.7895 50.6292 48.4336M37.4124 42.6459C41.5861 43.6737 46.1077 45.3867 50.6292 48.4336M76.715 35.4512C72.6669 36.96 66.5278 41.6341 63.846 44.5608M63.846 44.5608C62.107 40.8277 60.7853 32.1352 69.411 27.2297C77.6351 22.5527 86.7233 25.3514 90.7674 27.5917C91.1116 27.7824 91.2928 28.1637 91.2339 28.5528C90.3763 34.2115 87.0763 44.8485 79.8453 46.7571C72.3326 48.7399 66.0488 46.1191 63.846 44.5608ZM50.6292 48.4336C51.2682 44.5626 49.7185 35.6353 42.9774 33.053C37.9135 31.1132 32.1942 31.9707 24.2294 35.1557C23.8009 35.327 23.5474 35.7728 23.6287 36.2271C25.2086 45.0488 30.6558 53.2665 37.7602 53.2665C46.8033 53.2665 49.8177 50.273 50.6292 48.4336Z" stroke="#3D3D3D" stroke-width="3" stroke-linecap="round" stroke-linejoin="round" shape-rendering="crispEdges"/>
</g>
<defs>
<filter id="filter0_d_412_892" x="18.1133" y="23.1914" width="78.6328" height="79.6602" filterUnits="userSpaceOnUse" color-interpolation-filters="sRGB">
<feFlood flood-opacity="0" result="BackgroundImageFix"/>
<feColorMatrix in="SourceAlpha" type="matrix" values="0 0 0 0 0 0 0 0 0 0 0 0 0 0 0 0 0 0 127 0" result="hardAlpha"/>
<feOffset dy="4"/>
<feGaussianBlur stdDeviation="2"/>
<feComposite in2="hardAlpha" operator="out"/>
<feColorMatrix type="matrix" values="0 0 0 0 0 0 0 0 0 0 0 0 0 0 0 0 0 0 0.25 0"/>
<feBlend mode="normal" in2="BackgroundImageFix" result="effect1_dropShadow_412_892"/>
<feBlend mode="normal" in="SourceGraphic" in2="effect1_dropShadow_412_892" result="shape"/>
</filter>
</defs>
</svg>
