<svg width="64" height="64" viewBox="0 0 64 64" fill="none" xmlns="http://www.w3.org/2000/svg">
<path d="M30.9779 9.39663C31.8543 7.44393 34.6266 7.44393 35.503 9.39662L40.9147 21.4542C41.2753 22.2577 42.035 22.8096 42.9106 22.9043L56.0503 24.3251C58.1783 24.5552 59.035 27.1918 57.4487 28.6288L47.6536 37.5015C47.0008 38.0928 46.7106 38.9859 46.8912 39.8479L49.6003 52.7835C50.039 54.8784 47.7962 56.508 45.9394 55.4433L34.474 48.8695C33.71 48.4314 32.7709 48.4314 32.0069 48.8695L20.5416 55.4433C18.6848 56.508 16.4419 54.8784 16.8806 52.7835L19.5898 39.8479C19.7703 38.9859 19.4801 38.0928 18.8274 37.5015L9.03228 28.6288C7.44599 27.1918 8.30267 24.5552 10.4306 24.3251L23.5703 22.9043C24.4459 22.8096 25.2056 22.2577 25.5663 21.4542L30.9779 9.39663Z" fill="#E9BB6B"/>
<g filter="url(#filter0_d_583_12)">
<path d="M28.4102 5.0791C28.9334 3.91439 30.5873 3.91427 31.1104 5.0791L36.5215 17.1367C37.0275 18.2641 38.0937 19.0389 39.3223 19.1719L52.4619 20.5928C53.7318 20.7301 54.2435 22.3036 53.2969 23.1611L43.502 32.0342C42.5861 32.8638 42.1784 34.1167 42.4316 35.3262L45.1406 48.2617C45.4025 49.5119 44.0641 50.4849 42.9561 49.8496L31.4912 43.2754C30.4192 42.6607 29.1014 42.6608 28.0293 43.2754L16.5635 49.8496C15.4554 50.4846 14.1171 49.5118 14.3789 48.2617L17.0879 35.3262C17.3411 34.1168 16.9342 32.8638 16.0186 32.0342L6.22363 23.1611C5.27698 22.3036 5.78775 20.7301 7.05762 20.5928L20.1973 19.1719C21.4259 19.039 22.492 18.2642 22.998 17.1367L28.4102 5.0791Z" stroke="black" stroke-width="2" shape-rendering="crispEdges"/>
</g>
<defs>
<filter id="filter0_d_583_12" x="2.16203" y="3.20703" width="55.1955" height="52.9884" filterUnits="userSpaceOnUse" color-interpolation-filters="sRGB">
<feFlood flood-opacity="0" result="BackgroundImageFix"/>
<feColorMatrix in="SourceAlpha" type="matrix" values="0 0 0 0 0 0 0 0 0 0 0 0 0 0 0 0 0 0 127 0" result="hardAlpha"/>
<feOffset dy="2.57235"/>
<feGaussianBlur stdDeviation="1.28617"/>
<feComposite in2="hardAlpha" operator="out"/>
<feColorMatrix type="matrix" values="0 0 0 0 0 0 0 0 0 0 0 0 0 0 0 0 0 0 0.25 0"/>
<feBlend mode="normal" in2="BackgroundImageFix" result="effect1_dropShadow_583_12"/>
<feBlend mode="normal" in="SourceGraphic" in2="effect1_dropShadow_583_12" result="shape"/>
</filter>
</defs>
</svg>
